<?xml version="1.0" standalone="no"?>
<!DOCTYPE svg PUBLIC "-//W3C//DTD SVG 20010904//EN"
 "http://www.w3.org/TR/2001/REC-SVG-20010904/DTD/svg10.dtd">
<svg version="1.0" xmlns="http://www.w3.org/2000/svg"
 width="527.000000pt" height="527.000000pt" viewBox="0 0 527.000000 527.000000"
 preserveAspectRatio="xMidYMid meet">
<metadata>
Created by potrace 1.14, written by Peter Selinger 2001-2017
</metadata>
<g transform="translate(0.000000,527.000000) scale(0.100000,-0.100000)"
fill="#000000" stroke="none">
<path d="M2507 4874 c-1 -1 -20 -5 -42 -8 -23 -4 -52 -8 -65 -11 -26 -5 -77
-13 -131 -20 -19 -3 -43 -6 -54 -9 -11 -2 -45 -7 -75 -11 -30 -4 -152 -43
-270 -87 -195 -72 -229 -88 -370 -176 -85 -53 -159 -99 -165 -102 -46 -22
-101 -70 -250 -215 -39 -38 -92 -88 -116 -111 -35 -32 -202 -263 -254 -351 -5
-10 -16 -24 -23 -32 -18 -19 -47 -83 -123 -266 -33 -82 -67 -163 -75 -180 -7
-16 -16 -43 -18 -59 -3 -16 -10 -52 -15 -80 -12 -60 -19 -98 -27 -146 -3 -19
-9 -51 -14 -70 -20 -81 -23 -125 -22 -310 1 -226 6 -312 22 -371 7 -24 13 -52
15 -63 1 -12 5 -28 8 -36 4 -11 23 -97 32 -140 16 -81 50 -181 95 -280 84
-183 153 -322 172 -345 9 -11 38 -49 65 -85 26 -36 52 -70 58 -77 18 -22 30
-38 60 -78 17 -22 37 -49 45 -60 21 -28 78 -83 134 -130 26 -22 55 -47 64 -56
10 -8 58 -49 107 -90 50 -41 92 -77 95 -80 3 -3 55 -32 115 -64 61 -32 133
-70 160 -85 158 -85 163 -87 355 -140 19 -5 60 -17 90 -25 187 -54 201 -56
493 -70 48 -2 92 -7 97 -10 6 -3 10 -1 10 5 0 7 6 8 18 2 9 -4 26 -7 37 -6 38
3 120 15 201 29 45 8 103 17 130 21 27 3 58 8 69 11 11 2 36 6 55 9 33 5 153
48 227 80 17 8 34 14 37 14 3 0 29 11 58 24 45 20 87 36 108 41 25 6 94 48
260 159 138 92 217 153 270 206 221 224 269 279 333 382 37 59 67 112 67 117
0 5 3 11 8 13 21 9 118 193 153 291 123 342 124 346 133 437 4 30 8 66 10 80
2 14 7 52 11 85 4 32 9 68 11 80 5 25 17 147 16 160 -1 6 -3 37 -6 70 -3 33
-7 85 -10 115 -3 30 -8 91 -11 135 -9 118 -10 121 -81 359 -61 207 -76 244
-165 403 -10 17 -43 78 -73 135 -31 57 -73 122 -93 145 -21 23 -54 61 -73 84
-19 24 -51 62 -70 84 -19 23 -51 60 -70 84 -19 23 -82 78 -140 124 -58 45
-141 110 -184 145 -58 46 -134 90 -281 163 -112 54 -224 106 -251 113 -71 21
-325 87 -353 92 -14 3 -29 8 -34 11 -5 3 -49 7 -96 9 -47 2 -129 6 -181 9
-161 9 -220 11 -223 9z m370 -628 c104 -15 321 -80 423 -126 63 -29 119 -56
124 -61 6 -5 2 -20 -12 -39 -12 -16 -22 -32 -22 -34 0 -3 -25 -42 -55 -87 -30
-45 -55 -83 -55 -86 0 -3 -17 -30 -39 -61 -21 -32 -57 -87 -81 -124 l-42 -67
-37 15 c-85 37 -137 56 -151 58 -8 1 -33 7 -55 13 -140 40 -346 34 -513 -13
-51 -15 -94 -25 -96 -23 -12 13 -256 512 -253 516 3 2 49 21 104 40 110 40
231 68 331 78 37 4 69 8 71 11 6 5 312 -3 358 -10z m-917 -399 c52 -106 97
-194 100 -197 5 -5 38 -70 52 -102 6 -14 -5 -27 -50 -60 -92 -67 -215 -199
-271 -289 -28 -46 -51 -89 -51 -95 0 -7 -4 -14 -8 -16 -8 -3 -48 -111 -57
-153 -17 -75 -32 -120 -41 -118 -5 1 -63 4 -129 7 -66 4 -147 9 -180 11 -33 3
-109 7 -169 10 -61 3 -111 7 -113 9 -2 1 2 25 7 52 6 27 13 63 15 79 6 36 22
98 36 140 6 17 12 35 13 40 4 13 24 62 41 100 8 16 27 59 43 96 56 125 183
300 310 424 115 113 324 268 347 258 5 -2 53 -91 105 -196z m1676 75 c22 -20
62 -55 90 -77 64 -51 92 -79 140 -140 21 -27 42 -52 46 -55 12 -10 93 -119
112 -152 10 -18 45 -83 77 -145 53 -103 64 -131 89 -218 5 -16 18 -61 30 -100
26 -83 24 -75 46 -288 l7 -67 -114 5 c-337 14 -501 23 -505 28 -1 1 -4 27 -7
58 -24 230 -124 437 -299 612 -99 101 -98 85 -21 194 23 34 43 64 43 66 0 4
72 116 184 284 11 18 26 33 31 33 6 0 28 -17 51 -38z m-944 -1018 c46 -5 89
-28 124 -66 61 -67 67 -80 70 -173 5 -164 -164 -282 -320 -224 -133 49 -197
204 -137 330 21 44 70 99 89 99 4 0 14 6 20 13 14 13 102 36 115 29 4 -2 22
-5 39 -8z m-1397 -239 c55 -3 152 -8 215 -11 63 -3 117 -8 120 -10 3 -3 6 -17
7 -32 8 -86 27 -199 40 -232 3 -8 7 -22 9 -30 2 -9 13 -37 24 -63 11 -26 21
-49 20 -52 -1 -11 104 -172 143 -220 46 -55 118 -124 130 -125 16 0 5 -35 -30
-93 -21 -34 -41 -64 -44 -67 -4 -3 -25 -34 -48 -70 -22 -36 -44 -69 -49 -75
-4 -5 -19 -28 -32 -50 -13 -22 -28 -41 -32 -43 -4 -2 -8 -8 -8 -13 0 -10 -35
-62 -57 -86 -6 -7 -15 -22 -18 -33 -9 -28 -24 -25 -65 11 -136 120 -169 153
-223 224 -34 44 -67 86 -74 93 -7 7 -13 17 -13 21 0 4 -9 17 -20 28 -25 28
-177 339 -184 378 -3 17 -14 64 -26 105 -11 41 -22 88 -25 104 -3 16 -8 33
-10 37 -4 6 -10 78 -19 262 -1 26 0 49 2 52 3 3 41 3 86 0 45 -3 126 -7 181
-10z m2630 -140 c22 -2 100 -6 173 -10 73 -4 141 -8 150 -10 17 -2 18 -5 7
-85 -3 -25 -7 -56 -9 -70 -13 -101 -32 -168 -93 -325 -20 -49 -36 -95 -37
-100 -1 -6 -25 -48 -54 -95 -29 -47 -59 -94 -65 -105 -40 -67 -76 -116 -116
-157 -26 -25 -76 -77 -112 -115 -73 -75 -102 -99 -136 -116 -13 -5 -23 -14
-23 -19 0 -4 -7 -8 -15 -8 -8 0 -15 -4 -15 -9 0 -4 -22 -22 -49 -39 -37 -22
-52 -27 -59 -19 -18 24 -282 546 -282 559 0 7 16 24 35 37 94 64 213 188 272
286 22 36 97 190 99 204 2 8 9 35 17 60 8 25 18 66 22 91 4 25 10 49 12 53 3
5 58 5 122 1 64 -4 134 -8 156 -9z m-1707 -776 c67 -31 182 -70 217 -75 17 -2
57 -7 89 -12 61 -9 231 -8 276 3 14 3 36 7 50 10 50 10 66 14 122 34 l57 19
47 -91 c93 -180 244 -481 244 -487 0 -13 -272 -107 -330 -114 -25 -4 -54 -8
-65 -10 -11 -2 -45 -7 -75 -11 -30 -4 -64 -9 -75 -11 -61 -13 -440 10 -440 26
0 1 -7 3 -15 5 -8 1 -35 8 -60 15 -25 7 -52 14 -60 16 -78 18 -139 42 -250 96
-131 64 -149 80 -115 108 8 7 15 16 15 21 0 4 13 27 29 51 42 63 191 293 237
365 21 35 43 63 47 63 4 0 29 -10 55 -21z"/>
</g>
</svg>
